<svg width="1000" height="1000" viewBox="0 0 1000 1000" fill="none" xmlns="http://www.w3.org/2000/svg">
<g clip-path="url(#clip0_60929_2699)">
<path d="M237.883 258.889L465.595 486.601C472.993 493.999 472.993 505.992 465.595 513.39L237.893 741.092C183.463 795.522 95.2424 795.522 40.8224 741.092C13.6075 713.897 0 678.234 0 642.562C0 606.899 13.5976 571.236 40.8125 544.021L84.8337 500L41.9811 457.147C-12.6171 402.549 -13.449 312.378 41.5354 258.175C68.6513 231.446 103.997 218.076 139.343 218.086C175.005 218.086 210.668 231.684 237.873 258.898L237.883 258.889Z" fill="#118C4F"/>
<path d="M741.102 762.117L513.39 534.405C505.992 527.007 493.998 527.007 486.6 534.405L258.898 762.107C204.468 816.537 204.468 904.758 258.898 959.178C286.103 986.383 321.776 1000 357.439 1000C393.101 1000 428.764 986.403 455.979 959.188L500 915.166L542.853 958.019C597.451 1012.62 687.622 1013.45 741.825 958.465C768.554 931.349 781.924 896.003 781.914 860.657C781.914 824.995 768.317 789.332 741.102 762.127V762.117Z" fill="#118C4F"/>
<path d="M258.888 237.883L486.601 465.595C493.998 472.993 505.992 472.993 513.39 465.595L741.092 237.893C795.522 183.463 795.522 95.2424 741.092 40.8224C713.897 13.6075 678.234 0 642.561 0C606.899 0 571.236 13.5976 544.021 40.8125L500 84.8337L457.147 41.9811C402.549 -12.6171 312.377 -13.449 258.175 41.5354C231.446 68.6513 218.076 103.997 218.086 139.343C218.086 175.005 231.683 210.668 258.898 237.873L258.888 237.883Z" fill="#118C4F"/>
<path d="M762.117 741.102L534.405 513.39C527.007 505.992 527.007 493.998 534.405 486.6L762.107 258.898C816.537 204.468 904.758 204.468 959.178 258.898C986.383 286.103 1000 321.776 1000 357.439C1000 393.101 986.403 428.764 959.188 455.979L915.166 500L958.019 542.853C1012.62 597.451 1013.45 687.622 958.465 741.825C931.349 768.554 896.003 781.924 860.657 781.914C824.995 781.914 789.332 768.317 762.127 741.102H762.117Z" fill="#118C4F"/>
<path d="M500 648.553C582.044 648.553 648.553 582.044 648.553 500C648.553 417.956 582.044 351.447 500 351.447C417.956 351.447 351.447 417.956 351.447 500C351.447 582.044 417.956 648.553 500 648.553Z" fill="#F5DB54"/>
</g>
<defs>
<clipPath id="clip0_60929_2699">
<rect width="1000" height="1000" fill="white"/>
</clipPath>
</defs>
</svg>
